<?xml version="1.0" encoding="utf-8"?>
<!-- Generator: Adobe Illustrator 16.0.4, SVG Export Plug-In . SVG Version: 6.00 Build 0)  -->
<!DOCTYPE svg PUBLIC "-//W3C//DTD SVG 1.1//EN" "http://www.w3.org/Graphics/SVG/1.1/DTD/svg11.dtd">
<svg version="1.1" id="Layer_1" xmlns="http://www.w3.org/2000/svg" xmlns:xlink="http://www.w3.org/1999/xlink" x="0px" y="0px"
   width="256px" height="145px" viewBox="0 0 256 145" enable-background="new 0 0 256 145" xml:space="preserve">
<path fill="#FFFFFF" d="M142.896,88.158c0.764,1.791,1.916,2.946,3.97,2.946h0.254c2.054,0,3.206-1.155,3.975-2.946l36.646-83.803
  c0.255-0.508,0.255-0.766,0.255-1.28c0-1.537-1.409-3.074-3.206-3.074c-1.534,0-2.689,1.151-3.333,2.561l-34.337,80.47L112.91,2.692
  c-0.644-1.539-1.795-2.69-3.459-2.69c-1.923,0-3.333,1.664-3.333,3.202c0,0.644,0,0.896,0.256,1.41L142.896,88.158z"/>
<path fill="#FFFFFF" d="M46.541,2.948c-0.763-1.795-1.917-2.946-3.97-2.946h-0.253c-2.052,0-3.205,1.151-3.976,2.946L1.696,86.75
  C1.44,87.256,1.44,87.516,1.44,88.03c0,1.534,1.41,3.074,3.207,3.074c1.536,0,2.689-1.155,3.333-2.56L42.317,8.072l34.211,80.339
  c0.643,1.537,1.795,2.692,3.459,2.692c1.924,0,3.333-1.664,3.333-3.201c0-0.646,0-0.9-0.256-1.415L46.541,2.948z"/>
<path fill="#FFFFFF" d="M236.437,0c-1.797,0-3.333,1.538-3.333,3.333v84.051c0,1.796,1.536,3.333,3.333,3.333
  c1.796,0,3.333-1.537,3.333-3.333V3.333C239.77,1.538,238.232,0,236.437,0"/>
<path fill="#FF4B00" d="M1.981,121.077c0-0.458,0.393-0.847,0.849-0.847H3.09c0.357,0,0.619,0.198,0.845,0.49l15.377,19.511v-19.218
  c0-0.458,0.357-0.816,0.815-0.816c0.457,0,0.813,0.358,0.813,0.816v21.498c0,0.395-0.294,0.72-0.685,0.72h-0.128
  c-0.328,0-0.586-0.231-0.846-0.558L3.609,122.802v19.643c0,0.461-0.357,0.816-0.813,0.816c-0.459,0-0.815-0.355-0.815-0.816V121.077
  z"/>
<path fill="#FF4B00" d="M47.417,143.521c-4.366,0-8.147-3.483-8.147-8.664v-0.065c0-4.822,3.389-8.667,7.884-8.667
  c4.661,0,7.624,3.845,7.624,8.604c0,0.389-0.392,0.75-0.785,0.75H40.965c0.292,4.135,3.257,6.544,6.514,6.544
  c2.379,0,4.042-0.974,5.377-2.276c0.131-0.133,0.292-0.229,0.519-0.229c0.425,0,0.784,0.323,0.784,0.748
  c0,0.16-0.067,0.358-0.261,0.555C52.27,142.448,50.41,143.521,47.417,143.521 M53.05,134.043c-0.229-3.359-2.15-6.45-5.961-6.45
  c-3.292,0-5.831,2.771-6.123,6.45H53.05z"/>
<path fill="#FF4B00" d="M73.362,138.862v-10.88h-1.792c-0.391,0-0.747-0.355-0.747-0.748c0-0.392,0.356-0.717,0.747-0.717h1.792
  v-4.626c0-0.458,0.326-0.814,0.782-0.814c0.453,0,0.815,0.356,0.815,0.814v4.626h5.211c0.391,0,0.748,0.355,0.748,0.75
  c0,0.39-0.357,0.715-0.748,0.715h-5.211v10.72c0,2.377,1.399,3.224,3.322,3.224c1.139,0,1.663-0.322,1.889-0.322
  c0.36,0,0.716,0.322,0.716,0.715c0,0.325-0.196,0.555-0.521,0.682c-0.651,0.231-1.401,0.422-2.345,0.422
  C75.447,143.421,73.362,142.022,73.362,138.862"/>
<path fill="#FF4B00" d="M102.986,142.643l-5.441-14.956c-0.062-0.16-0.129-0.356-0.129-0.519c0-0.423,0.393-0.784,0.85-0.784
  c0.456,0,0.716,0.295,0.846,0.688l4.82,14.04l4.82-14.104c0.13-0.361,0.359-0.624,0.784-0.624h0.062
  c0.457,0,0.686,0.263,0.819,0.624l4.817,14.104l4.854-14.104c0.099-0.329,0.328-0.624,0.784-0.624c0.457,0,0.813,0.361,0.813,0.753
  c0,0.193-0.065,0.39-0.13,0.55l-5.441,14.956c-0.164,0.453-0.486,0.718-0.88,0.718h-0.062c-0.425,0-0.719-0.265-0.88-0.751
  l-4.724-13.584l-4.758,13.584c-0.162,0.486-0.456,0.751-0.878,0.751h-0.065C103.476,143.361,103.15,143.096,102.986,142.643"/>
<path fill="#FF4B00" d="M137.703,134.89v-0.068c0-4.656,3.616-8.697,8.567-8.697c4.918,0,8.503,3.975,8.503,8.634v0.063
  c0,4.661-3.618,8.702-8.569,8.702C141.286,143.524,137.703,139.549,137.703,134.89 M153.046,134.89v-0.068
  c0-4.005-2.994-7.198-6.842-7.198c-3.938,0-6.775,3.227-6.775,7.135v0.063c0,4.01,2.997,7.2,6.842,7.2
  C150.212,142.022,153.046,138.798,153.046,134.89"/>
<path fill="#FF4B00" d="M172.742,127.202c0-0.456,0.326-0.817,0.781-0.817s0.814,0.331,0.814,0.817v4.037
  c1.433-3.221,4.33-4.981,6.679-4.981c0.488,0,0.848,0.39,0.848,0.88c0,0.458-0.326,0.845-0.848,0.881
  c-3.521,0.325-6.679,2.962-6.679,8.305v6.127c0,0.453-0.326,0.812-0.781,0.812c-0.458,0-0.814-0.325-0.814-0.812V127.202z"/>
<path fill="#FF4B00" d="M198.814,120.034c0-0.455,0.326-0.814,0.781-0.814c0.458,0,0.817,0.359,0.817,0.814v17.137l10.195-10.557
  c0.16-0.16,0.325-0.229,0.555-0.229c0.422,0,0.748,0.326,0.748,0.753c0,0.229-0.063,0.359-0.263,0.55l-6.091,6.193l6.517,8.045
  c0.162,0.193,0.229,0.356,0.229,0.586c0,0.458-0.326,0.75-0.781,0.75c-0.293,0-0.458-0.097-0.685-0.358l-6.386-7.883l-4.038,4.071
  v3.358c0,0.486-0.326,0.812-0.781,0.812c-0.456,0-0.817-0.325-0.817-0.812V120.034z"/>
<path fill="#FF4B00" d="M229.032,141.307c-0.13-0.099-0.293-0.358-0.293-0.618c0-0.425,0.359-0.783,0.781-0.783
  c0.198,0,0.39,0.065,0.524,0.162c1.723,1.239,3.547,1.891,5.536,1.891c2.247,0,4.005-1.239,4.005-3.162v-0.063
  c0-1.954-2.083-2.67-4.396-3.321c-2.702-0.783-5.702-1.598-5.702-4.56v-0.068c0-2.669,2.247-4.593,5.474-4.593
  c1.794,0,3.78,0.588,5.373,1.496c0.196,0.133,0.426,0.361,0.426,0.721c0,0.422-0.359,0.778-0.781,0.778
  c-0.196,0-0.359-0.063-0.458-0.127c-1.431-0.848-3.028-1.372-4.623-1.372c-2.283,0-3.781,1.242-3.781,2.9v0.066
  c0,1.857,2.246,2.542,4.628,3.227c2.672,0.748,5.471,1.725,5.471,4.656v0.068c0,2.962-2.539,4.853-5.73,4.853
  C233.235,143.458,230.729,142.577,229.032,141.307"/>
<path fill="#FF4B00" d="M246.408,124.796c0-2.295,1.845-4.16,4.157-4.16c2.293,0,4.16,1.865,4.16,4.16
  c0,2.29-1.867,4.152-4.16,4.152C248.253,128.949,246.408,127.086,246.408,124.796 M253.629,124.796c0-1.857-1.285-3.173-3.063-3.173
  c-1.809,0-3.061,1.315-3.061,3.173c0,1.853,1.252,3.171,3.061,3.171C252.344,127.967,253.629,126.649,253.629,124.796
   M252.629,127.053h-1.086l-0.998-1.896h-0.748v1.896h-0.941v-4.485h2.173c1.171,0,1.743,0.315,1.743,1.374
  c0,0.829-0.438,1.16-1.229,1.216L252.629,127.053z M251.039,124.487c0.504,0.01,0.854-0.107,0.854-0.667
  c0-0.604-0.646-0.562-1.073-0.562h-1.023v1.229H251.039z"/>
</svg>
